<?xml version="1.0" standalone="no"?>
<!DOCTYPE svg PUBLIC "-//W3C//DTD SVG 20010904//EN"
 "http://www.w3.org/TR/2001/REC-SVG-20010904/DTD/svg10.dtd">
<svg version="1.0" xmlns="http://www.w3.org/2000/svg"
 width="1280.000000pt" height="347.000000pt" viewBox="0 0 1280.000000 347.000000"
 preserveAspectRatio="xMidYMid meet">

<g transform="translate(0.000000,347.000000) scale(0.100000,-0.100000)"
fill="#000000" stroke="none">
<path d="M0 1735 l0 -1735 6400 0 6400 0 0 1735 0 1735 -6400 0 -6400 0 0
-1735z m2975 455 c3 -6 -1 -7 -9 -4 -18 7 -21 14 -7 14 6 0 13 -4 16 -10z
m120 -30 c4 -6 -1 -7 -11 -3 -13 5 -15 3 -9 -7 5 -9 4 -11 -4 -6 -6 4 -9 12
-6 17 8 12 22 12 30 -1z m-929 -267 l-7 -238 -72 -67 -72 -67 -6 92 c-4 51 -7
148 -8 217 l-1 126 81 87 c44 48 83 87 86 87 3 0 2 -107 -1 -237z m988 185
c-9 -14 -23 1 -21 23 1 19 2 19 14 3 7 -9 10 -21 7 -26z m361 -498 c278 -277
505 -506 505 -507 0 -2 -48 -3 -107 -3 l-108 0 -81 68 c-45 37 -152 126 -239
197 -296 243 -570 468 -622 512 l-53 45 92 99 c51 54 96 98 100 97 4 -2 235
-230 513 -508z m-685 470 c0 -5 -2 -10 -4 -10 -3 0 -8 5 -11 10 -3 6 -1 10 4
10 6 0 11 -4 11 -10z m-5 -28 c-3 -3 -11 0 -18 7 -9 10 -8 11 6 5 10 -3 15 -9
12 -12z m435 -27 c10 -12 10 -19 2 -27 -13 -13 -42 6 -42 28 0 19 24 18 40 -1z
m61 -66 c10 -6 8 -9 -8 -9 -17 0 -23 6 -23 23 0 16 3 18 9 8 5 -7 15 -17 22
-22z m-595 9 c4 -6 3 -8 -4 -4 -6 3 -13 2 -17 -4 -3 -5 -11 -10 -16 -10 -11 0
12 29 23 30 4 0 10 -5 14 -12z m609 -48 c3 -6 -1 -7 -9 -4 -18 7 -21 14 -7 14
6 0 13 -4 16 -10z m-685 -14 c0 -3 -4 -8 -10 -11 -5 -3 -10 -1 -10 4 0 6 5 11
10 11 6 0 10 -2 10 -4z m745 -26 c3 -5 1 -10 -4 -10 -6 0 -11 5 -11 10 0 6 2
10 4 10 3 0 8 -4 11 -10z m29 -25 c3 -8 1 -15 -4 -15 -6 0 -10 7 -10 15 0 8 2
15 4 15 2 0 6 -7 10 -15z m41 -44 c3 -5 1 -12 -5 -16 -5 -3 -10 1 -10 9 0 18
6 21 15 7z m160 -161 c10 -11 16 -20 13 -20 -3 0 -13 9 -23 20 -10 11 -16 20
-13 20 3 0 13 -9 23 -20z m-1223 -12 c-3 -12 -7 -17 -10 -10 -2 7 -9 10 -15 6
-7 -3 -3 2 7 10 25 20 25 20 18 -6z m-71 -62 c-9 -20 -19 -29 -23 -22 -4 6 2
21 14 33 28 30 28 29 9 -11z m1344 3 c13 -20 0 -15 -25 9 -23 22 -23 24 -3 13
12 -6 25 -16 28 -22z m75 -58 c0 -6 -4 -13 -10 -16 -5 -3 -10 1 -10 9 0 9 5
16 10 16 6 0 10 -4 10 -9z m-1495 -31 c3 -6 -1 -7 -9 -4 -18 7 -21 14 -7 14 6
0 13 -4 16 -10z m-72 -82 c-9 -10 -19 -16 -22 -12 -3 3 2 10 11 15 10 6 15 16
12 27 -5 14 -4 15 5 2 7 -11 6 -19 -6 -32z m1716 -42 c-2 -2 -13 8 -23 22
l-19 27 24 -22 c12 -12 21 -24 18 -27z m31 -26 c0 -5 -2 -10 -4 -10 -3 0 -8 5
-11 10 -3 6 -1 10 4 10 6 0 11 -4 11 -10z m41 -37 c13 -16 12 -17 -3 -4 -17
13 -22 21 -14 21 2 0 10 -8 17 -17z m-1911 -17 c0 -2 -8 -10 -17 -17 -16 -13
-17 -12 -4 4 13 16 21 21 21 13z m-45 -36 c3 -6 -1 -7 -9 -4 -18 7 -21 14 -7
14 6 0 13 -4 16 -10z m2053 -43 c18 -19 21 -27 10 -33 -7 -4 -10 -4 -6 0 3 4
-10 24 -30 43 -21 19 -28 31 -17 25 11 -6 30 -21 43 -35z m-2138 -47 c0 -5 -4
-10 -10 -10 -5 0 -10 5 -10 10 0 6 5 10 10 10 6 0 10 -4 10 -10z m-55 -40 c3
-5 1 -10 -4 -10 -6 0 -11 5 -11 10 0 6 2 10 4 10 3 0 8 -4 11 -10z m2395 -4
c0 -2 -7 -6 -15 -10 -8 -3 -15 -1 -15 4 0 6 7 10 15 10 8 0 15 -2 15 -4z"/>
<path d="M3230 1990 c0 -5 5 -10 10 -10 6 0 10 5 10 10 0 6 -4 10 -10 10 -5 0
-10 -4 -10 -10z"/>
</g>
</svg>
